<svg viewBox="0 0 100 100" fill="none" xmlns="http://www.w3.org/2000/svg">
  <path
    d="M73.3096 50.2L93.9596 58.95C94.6596 59.3 95.0096 60.35 94.6596 61.05L82.4096 82.4C81.7096 83.45 80.6596 83.45 79.9596 83.1L62.1096 69.45L65.2596 91.5C65.2596 92.55 64.5596 93.25 63.5096 93.25H39.0096C37.9596 93.25 37.2596 92.55 37.2596 91.5L40.4096 69.45L22.5596 83.1C21.8596 83.45 20.8096 83.45 20.1096 82.4L7.85957 61.05C7.50957 60.35 7.85957 59.3 8.55957 58.95L29.2096 50.2L8.55957 41.8C7.85957 41.45 7.50957 40.4 7.85957 39.7L20.1096 18.35C20.8096 17.3 21.8596 17.3 22.5596 17.65L40.4096 31.3L37.2596 9.24999C37.2596 8.19998 37.9596 7.49999 39.0096 7.49999H63.5096C64.5596 7.49999 65.2596 8.19998 65.2596 9.24999L62.1096 31.3L79.9596 17.65C80.6596 17.3 81.7096 17.3 82.4096 18.35L94.6596 39.7C95.0096 40.4 94.6596 41.45 93.9596 41.8L73.3096 50.2Z"
    fill="currentColor" />
</svg>